<svg width="20" height="23" viewBox="0 0 20 23" fill="none" xmlns="http://www.w3.org/2000/svg">
    <path d="M11.73 20.5017C11.5542 20.8048 11.3018 21.0564 10.9982 21.2312C10.6946 21.4061 10.3504 21.4982 10 21.4982C9.64962 21.4982 9.30539 21.4061 9.00177 21.2312C8.69816 21.0564 8.44581 20.8048 8.27 20.5017M16 7.50171C16 5.91041 15.3679 4.38429 14.2426 3.25907C13.1174 2.13385 11.5913 1.50171 10 1.50171C8.4087 1.50171 6.88258 2.13385 5.75736 3.25907C4.63214 4.38429 4 5.91041 4 7.50171C4 14.5017 1 16.5017 1 16.5017H19C19 16.5017 16 14.5017 16 7.50171Z" stroke="black" stroke-width="2" stroke-linecap="round" stroke-linejoin="round"/>
</svg>
