<svg width="17" height="19" viewBox="0 0 17 19" fill="none" xmlns="http://www.w3.org/2000/svg">
    <path d="M1.00037 4.50008L3.50037 1.16675H13.5004L16.0004 4.50008M1.00037 4.50008V16.1667C1.00037 16.6088 1.17596 17.0327 1.48852 17.3453C1.80108 17.6578 2.22501 17.8334 2.66703 17.8334H14.3337C14.7757 17.8334 15.1996 17.6578 15.5122 17.3453C15.8248 17.0327 16.0004 16.6088 16.0004 16.1667V4.50008M1.00037 4.50008H16.0004M11.8337 7.83341C11.8337 8.71747 11.4825 9.56532 10.8574 10.1904C10.2323 10.8156 9.38442 11.1667 8.50037 11.1667C7.61631 11.1667 6.76846 10.8156 6.14334 10.1904C5.51822 9.56532 5.16703 8.71747 5.16703 7.83341" stroke="#9A9EA6" stroke-width="2" stroke-linecap="round" stroke-linejoin="round"/>
</svg>
